{
    "asset" : {
        "generator" : "Khronos glTF Blender I/O v0.9.36",
        "version" : "2.0"
    },
    "scene" : 0,
    "scenes" : [
        {
            "name" : "Scene",
            "nodes" : [
                0
            ]
        }
    ],
    "nodes" : [
        {
            "mesh" : 0,
            "name" : "Boat",
            "rotation" : [
                0.49999961256980896,
                0.4999997615814209,
                -0.5000002384185791,
                0.5000004172325134
            ],
            "scale" : [
                16,
                16,
                16
            ]
        }
    ],
    "materials" : [
        {
            "name" : "Black",
            "pbrMetallicRoughness" : {
                "baseColorFactor" : [
                    0.006370220333337784,
                    0.006370220333337784,
                    0.006370220333337784,
                    1
                ],
                "metallicFactor" : 0,
                "roughnessFactor" : 0.5
            }
        },
        {
            "name" : "Red",
            "pbrMetallicRoughness" : {
                "baseColorFactor" : [
                    0.8000000715255737,
                    0,
                    0.0015051120426505804,
                    1
                ],
                "metallicFactor" : 0,
                "roughnessFactor" : 0.5
            }
        },
        {
            "name" : "Gray",
            "pbrMetallicRoughness" : {
                "baseColorFactor" : [
                    0.7873992919921875,
                    0.7873992919921875,
                    0.7873992919921875,
                    1
                ],
                "metallicFactor" : 0,
                "roughnessFactor" : 0.5
            }
        }
    ],
    "meshes" : [
        {
            "name" : "Cylinder",
            "primitives" : [
                {
                    "attributes" : {
                        "POSITION" : 0
                    },
                    "indices" : 1,
                    "material" : 0
                },
                {
                    "attributes" : {
                        "POSITION" : 2
                    },
                    "indices" : 3,
                    "material" : 1
                },
                {
                    "attributes" : {
                        "POSITION" : 4
                    },
                    "indices" : 5,
                    "material" : 2
                }
            ]
        }
    ],
    "accessors" : [
        {
            "bufferView" : 0,
            "componentType" : 5126,
            "count" : 120,
            "max" : [
                0.4799998104572296,
                1.8376882076263428,
                -0.0017478987574577332
            ],
            "min" : [
                -0.48000049591064453,
                -1.9623122215270996,
                -0.24174803495407104
            ],
            "type" : "VEC3"
        },
        {
            "bufferView" : 1,
            "componentType" : 5123,
            "count" : 390,
            "type" : "SCALAR"
        },
        {
            "bufferView" : 2,
            "componentType" : 5126,
            "count" : 88,
            "max" : [
                0.39910513162612915,
                1.4662599563598633,
                0.159307062625885
            ],
            "min" : [
                -0.39910614490509033,
                -1.96231210231781,
                -0.10841112583875656
            ],
            "type" : "VEC3"
        },
        {
            "bufferView" : 3,
            "componentType" : 5123,
            "count" : 387,
            "type" : "SCALAR"
        },
        {
            "bufferView" : 4,
            "componentType" : 5126,
            "count" : 83,
            "max" : [
                0.4799998104572296,
                1.8376882076263428,
                -0.21542589366436005
            ],
            "min" : [
                -0.48000049591064453,
                -1.9623122215270996,
                -0.5282055139541626
            ],
            "type" : "VEC3"
        },
        {
            "bufferView" : 5,
            "componentType" : 5123,
            "count" : 219,
            "type" : "SCALAR"
        }
    ],
    "bufferViews" : [
        {
            "buffer" : 0,
            "byteLength" : 1440,
            "byteOffset" : 0
        },
        {
            "buffer" : 0,
            "byteLength" : 780,
            "byteOffset" : 1440
        },
        {
            "buffer" : 0,
            "byteLength" : 1056,
            "byteOffset" : 2220
        },
        {
            "buffer" : 0,
            "byteLength" : 774,
            "byteOffset" : 3276
        },
        {
            "buffer" : 0,
            "byteLength" : 996,
            "byteOffset" : 4052
        },
        {
            "buffer" : 0,
            "byteLength" : 438,
            "byteOffset" : 5048
        }
    ],
    "buffers" : [
        {
            "byteLength" : 5488,
            "uri" : "data:application/octet-stream;base64,"
        }
    ]
}
